#!OML:ASF E:\CV Data\Top Level 1\Subject 1\Session 1\player.ASF
:FULLY-SPECIFIED
:DEGREES
500
root 5.94906 15.4719 -19.9532 -6.43493 7.68902 -4.07373
lowerback 12.9934 1.74107 4.62486
upperback -2.01113 3.36359 2.98133
thorax -9.40623 1.46268 -0.104098
lowerneck -11.9982 -11.4285 -16.078
upperneck -0.494686 -13.502 12.7867
head 3.73388 -6.28547 5.37891
rclavicle -3.72224e-014 -2.62396e-014
rhumerus 68.962 -3.19309 -51.5365
rradius 93.337
rwrist 31.5879
rhand -56.2806 50.5707
rfingers 7.12502
rthumb -28.6044 22.7396
lclavicle -3.72224e-014 -2.62396e-014
lhumerus 79.6992 -3.2923 61.5859
lradius 78.936
lwrist 37.4519
lhand -27.934 10.1609
lfingers 7.12502
lthumb -1.32216 40.1365
rfemur -17.6033 -11.289 17.5368
rtibia 67.0132
rfoot -35.8947 -17.4895
rtoes -15.3484
lfemur -21.3855 4.24044 -10.3244
ltibia 64.5273
lfoot -33.3978 0.991953
ltoes -14.3426
501
root 5.94141 15.4949 -19.9404 -6.37388 7.78539 -4.15577
lowerback 12.8175 1.75241 4.57909
upperback -2.08814 3.36434 2.98938
thorax -9.39182 1.46587 -0.0646867
lowerneck -11.9292 -11.4474 -16.0792
upperneck -0.643853 -13.5316 12.8691
head 3.68932 -6.29878 5.40722
rclavicle -3.67752e-015 -3.73715e-014
rhumerus 69.0044 -3.36251 -51.5188
rradius 93.142
rwrist 31.726
rhand -56.4079 51.5963
rfingers 7.12502
rthumb -28.726 23.7858
lclavicle -3.67752e-015 -3.73715e-014
lhumerus 79.8157 -3.16624 61.3758
lradius 78.7747
lwrist 37.4487
lhand -27.9704 9.90395
lfingers 7.12502
lthumb -1.35734 39.8794
rfemur -17.4119 -11.3013 17.6766
rtibia 66.575
rfoot -35.7996 -17.5202
rtoes -15.2116
lfemur -21.2693 4.25967 -10.1758
ltibia 64.166
lfoot -33.3377 0.749961
ltoes -14.407
502
root 5.9334 15.5241 -19.9281 -6.29796 7.88646 -4.22983
lowerback 12.6159 1.76624 4.51221
upperback -2.15582 3.36341 3.00387
thorax -9.35369 1.4703 -0.00528045
lowerneck -11.8542 -11.4675 -16.0933
upperneck -0.830718 -13.5599 12.9686
head 3.63463 -6.31098 5.44404
rclavicle -3.15074e-014 7.15625e-015
rhumerus 69.0568 -3.53209 -51.4838
rradius 92.9034
rwrist 31.8675
rhand -56.5473 52.5634
rfingers 7.12502
rthumb -28.8591 24.7755
lclavicle -3.15074e-014 7.15625e-015
lhumerus 79.9448 -3.03997 61.1735
lradius 78.5732
lwrist 37.4179
lhand -28.0022 9.69289
lfingers 7.12502
lthumb -1.388 39.6681
rfemur -17.2091 -11.3223 17.805
rtibia 66.0664
rfoot -35.6546 -17.4969
rtoes -15.0466
lfemur -21.126 4.27084 -10.0416
ltibia 63.715
lfoot -33.2335 0.495846
ltoes -14.4456
503
root 5.92502 15.5606 -19.9157 -6.20265 8.0029 -4.29419
lowerback 12.4068 1.77955 4.42833
upperback -2.23706 3.35947 3.0162
thorax -9.32685 1.47382 0.0620429
lowerneck -11.7518 -11.4879 -16.1083
upperneck -1.03826 -13.591 13.0715
head 3.57033 -6.32556 5.48346
rclavicle 2.64881e-014 -1.66979e-014
rhumerus 69.0864 -3.69182 -51.4398
rradius 92.6191
rwrist 32.0178
rhand -56.684 53.4266
rfingers 7.12502
rthumb -28.9897 25.6611
lclavicle 2.64881e-014 -1.66979e-014
lhumerus 80.0671 -2.93766 60.9803
lradius 78.3239
lwrist 37.3391
lhand -28.013 9.54849
lfingers 7.12502
lthumb -1.39848 39.5236
rfemur -16.9834 -11.3619 17.9206
rtibia 65.467
rfoot -35.4614 -17.4274
rtoes -14.8628
lfemur -20.9542 4.26614 -9.92623
ltibia 63.1598
lfoot -33.0772 0.228272
ltoes -14.4542
504
root 5.91622 15.6055 -19.9027 -6.08932 8.14257 -4.35526
lowerback 12.1724 1.78754 4.33217
upperback -2.31865 3.34519 3.02929
thorax -9.28645 1.47343 0.13989
lowerneck -11.6505 -11.5117 -16.1215
upperneck -1.26241 -13.6254 13.1761
head 3.50178 -6.34167 5.52312
rclavicle 3.62782e-015 -1.39149e-014
rhumerus 69.1122 -3.84895 -51.3903
rradius 92.2847
rwrist 32.1694
rhand -56.8339 54.1562
rfingers 7.12502
rthumb -29.1328 26.4154
lclavicle 3.62782e-015 -1.39149e-014
lhumerus 80.1979 -2.84692 60.792
lradius 78.0215
lwrist 37.2358
lhand -28.0284 9.43151
lfingers 7.12502
lthumb -1.41335 39.4066
rfemur -16.718 -11.4244 18.031
rtibia 64.753
rfoot -35.2166 -17.3207
rtoes -14.6713
lfemur -20.7468 4.2343 -9.82443
ltibia 62.4863
lfoot -32.8609 -0.0543233
ltoes -14.4337
505
root 5.90707 15.6595 -19.889 -5.9598 8.30575 -4.41431
lowerback 11.9469 1.78713 4.24024
upperback -2.42374 3.32159 3.02974
thorax -9.27601 1.4671 0.203075
lowerneck -11.5389 -11.5364 -16.122
upperneck -1.47577 -13.665 13.2817
head 3.43511 -6.36095 5.56081
rclavicle -2.96189e-014 -2.38542e-014
rhumerus 69.1008 -3.98985 -51.3506
rradius 91.8948
rwrist 32.3012
rhand -56.9811 54.8722
rfingers 7.12502
rthumb -29.2734 27.1558
lclavicle -2.96189e-014 -2.38542e-014
lhumerus 80.3165 -2.7904 60.596
lradius 77.6632
lwrist 37.1144
lhand -28.0297 9.36511
lfingers 7.12502
lthumb -1.41461 39.3402
rfemur -16.4006 -11.5064 18.1373
rtibia 63.9077
rfoot -34.9172 -17.1731
rtoes -14.4742
lfemur -20.4958 4.17258 -9.73528
ltibia 61.6823
lfoot -32.5805 -0.353685
ltoes -14.3843
506
root 5.89774 15.7232 -19.8741 -5.80889 8.50272 -4.48307
lowerback 11.695 1.77541 4.15499
upperback -2.5364 3.28294 3.03025
thorax -9.25818 1.45336 0.266205
lowerneck -11.4455 -11.5664 -16.1204
upperneck -1.67767 -13.7095 13.3863
head 3.3753 -6.38214 5.59629
rclavicle -1.80894e-014 -4.6118e-014
rhumerus 69.0802 -4.12184 -51.3108
rradius 91.4353
rwrist 32.4066
rhand -57.1707 55.1306
rfingers 7.12502
rthumb -29.4545 27.446
lclavicle -1.80894e-014 -4.6118e-014
lhumerus 80.4399 -2.75369 60.3984
lradius 77.2429
lwrist 37.022
lhand -28.0523 9.28914
lfingers 7.12502
lthumb -1.43647 39.2641
rfemur -16.0286 -11.6129 18.2533
rtibia 62.9149
rfoot -34.5545 -16.9802
rtoes -14.2813
lfemur -20.2056 4.06627 -9.64852
ltibia 60.7368
lfoot -32.2265 -0.671029
ltoes -14.3191
507
root 5.88844 15.7967 -19.8581 -5.64477 8.7146 -4.56405
lowerback 11.4274 1.75748 4.08126
upperback -2.65494 3.2376 3.03306
thorax -9.23705 1.43592 0.326904
lowerneck -11.3762 -11.6007 -16.123
upperneck -1.85952 -13.7569 13.4921
head 3.32615 -6.40394 5.63081
rclavicle 3.91606e-014 -2.54444e-014
rhumerus 69.0565 -4.24295 -51.2775
rradius 90.89
rwrist 32.4757
rhand -57.3744 55.1042
rfingers 7.12502
rthumb -29.6489 27.4539
lclavicle 3.91606e-014 -2.54444e-014
lhumerus 80.5644 -2.73817 60.2
lradius 76.7625
lwrist 36.9739
lhand -28.0976 9.20293
lfingers 7.12502
lthumb -1.48022 39.1775
rfemur -15.5934 -11.722 18.3838
rtibia 61.7658
rfoot -34.1188 -16.7418
rtoes -14.092
lfemur -19.8582 3.92538 -9.55909
ltibia 59.6409
lfoot -31.7969 -1.00768
ltoes -14.2284
508
root 5.87959 15.8803 -19.8405 -5.46827 8.93753 -4.65992
lowerback 11.1316 1.73571 4.02549
upperback -2.77541 3.18869 3.03942
thorax -9.20065 1.41624 0.38267
lowerneck -11.3286 -11.6413 -16.1299
upperneck -2.01997 -13.81 13.5972
head 3.28792 -6.4279 5.66357
rclavicle 4.87022e-015 -2.14687e-014
rhumerus 69.0374 -4.35856 -51.2579
rradius 90.2397
rwrist 32.5298
rhand -57.5696 54.8576
rfingers 7.12502
rthumb -29.8352 27.2406
lclavicle 4.87022e-015 -2.14687e-014
lhumerus 80.6921 -2.74719 60.0049
lradius 76.2259
lwrist 36.9769
lhand -28.1565 9.13842
lfingers 7.12502
lthumb -1.53708 39.1126
rfemur -15.0904 -11.8306 18.5322
rtibia 60.4482
rfoot -33.5974 -16.4673
rtoes -13.9195
lfemur -19.4451 3.74871 -9.46501
ltibia 58.383
lfoot -31.2839 -1.36398
ltoes -14.1217
